<?xml version="1.0" encoding="utf-8"?><svg viewBox="0 0 447 308" xmlns="http://www.w3.org/2000/svg" xmlns:xlink="http://www.w3.org/1999/xlink"><style>:root>svg{display:none}:root>svg:target{display:block}</style><svg fill="none" viewBox="0 0 24 24" id="close" xmlns="http://www.w3.org/2000/svg"><path d="M19 6.41L17.59 5 12 10.59 6.41 5 5 6.41 10.59 12 5 17.59 6.41 19 12 13.41 17.59 19 19 17.59 13.41 12 19 6.41z" fill="currentColor"/></svg><svg fill="none" viewBox="0 0 447 308" id="phone" xmlns="http://www.w3.org/2000/svg"><path d="M45.032 140.927l225.715 159.308a19.999 19.999 0 0021.77.841l103.256-61.529c12.701-7.568 13.083-25.825.71-33.918L139.421 37.489a19.999 19.999 0 00-21.099-.494L25.673 91.578c-12.25 7.217-13.27 24.552-1.95 33.155l21.309 16.194z" fill="#D9DBE9" stroke="#000" stroke-linecap="round" stroke-linejoin="round"/><path d="M403.093 231.696l1.396-2.792a19.532 19.532 0 001.559-4.335l.228-.99c.478-2.068.646-4.196.5-6.313l-.592-8.579-1.707 5.462-.024.076-.046.065-4.852 6.793 3.538 10.613z" fill="#D9DBE9" stroke="#000"/><path d="M395 225l5.5-4.5 3 9.5-1 2-7.5-7z" fill="#D9DBE9"/><path d="M19.398 120.269l-1.146-2.101a19.506 19.506 0 01-1.881-4.953l-.177-.765a21.496 21.496 0 01-.515-6.061l.618-10.826 1.715 7.547.023.098.058.082 4.85 6.79-3.545 10.189z" fill="#D9DBE9" stroke="#000"/><path d="M27.5 113.999l-5.5-4.5-4 7 2 4 7.5-6.5z" fill="#D9DBE9"/><path d="M45.752 127.238l225.715 159.308a20.002 20.002 0 0021.771.841l103.255-61.529c12.701-7.569 13.083-25.826.71-33.919L140.142 23.799a20 20 0 00-21.1-.493L26.394 77.888c-12.25 7.217-13.27 24.552-1.95 33.156l21.308 16.194z" fill="#F7F7FC" stroke="#000" stroke-linecap="round" stroke-linejoin="round"/><rect x="67.045" y="61.489" width="34.143" height="3.882" rx="1.941" transform="rotate(-30 67.045 61.489)" fill="#B1B3C0" stroke="#000"/><path d="M278.617 131.313c.885.884 2.288.961 3.284.235 41.873-30.555 83.631-23.094 116.583-3.867.686.401.846 1.117.613 1.764-.236.654-.851 1.158-1.666 1.092-30.162-2.442-56.492 8.579-82.247 33.787a2.491 2.491 0 00-.017 3.538l18.735 18.735c.945.945.276 2.561-1.061 2.561h-73.633a1.5 1.5 0 01-1.5-1.5v-73.633c0-1.336 1.616-2.005 2.561-1.06l18.348 18.348z" fill="url(#bpaint0_linear_1_711)" stroke="#000"/><path d="M112.758 125.317c.324 1.208-.309 2.459-1.432 2.963-33.85 15.174-44.823 43.428-45.297 70.89-.013.788.516 1.29 1.202 1.421.694.133 1.46-.139 1.834-.87 9.746-18.983 26.2-31.156 50.81-38.134a2.483 2.483 0 013.071 1.751l4.64 17.318c.346 1.291 2.08 1.519 2.748.362l26.475-45.856a1.5 1.5 0 00-.549-2.049l-45.856-26.474c-1.157-.669-2.545.396-2.199 1.687l4.553 16.991z" fill="url(#bpaint1_linear_1_711)" stroke="#000"/><defs><linearGradient id="bpaint0_linear_1_711" x1="127.5" y1="227" x2="208.253" y2="42.208" gradientUnits="userSpaceOnUse"><stop stop-color="#53EAFF"/><stop offset="1" stop-color="#B9F348"/></linearGradient><linearGradient id="bpaint1_linear_1_711" x1="246.5" y1="70" x2="98.32" y2="41.743" gradientUnits="userSpaceOnUse"><stop stop-color="#53EAFF"/><stop offset="1" stop-color="#B9F348"/></linearGradient></defs></svg><svg fill="none" viewBox="0 0 299 289" id="sim" xmlns="http://www.w3.org/2000/svg"><g opacity=".1" stroke="#000"><path d="M12.595 197.473l122.811 86.165a12 12 0 0013.035.485l133.62-79.623c7.712-4.595 7.832-15.722.22-20.483L109.695 76.092a12 12 0 00-12.409-.191l-90.205 52.62a12 12 0 00-5.853 11.917l6.36 48.763a12 12 0 005.007 8.272z" fill="#EFEFEF" stroke-linecap="round" stroke-linejoin="round"/><path d="M125.054 126.695a16.503 16.503 0 0117.606.286l80.089 52.367c10.237 6.693 9.888 21.807-.646 28.021l-62.73 37.004a16.5 16.5 0 01-17.974-.786l-75.55-53.964c-9.634-6.881-9.1-21.369 1.014-27.523l58.191-35.405z" fill="url(#cpaint0_linear_1_684)"/><path d="M83.093 179.905l57.597-35.527M100.318 192.825l57.597-35.527M117.544 205.743l57.596-35.527M136.922 219.739l57.596-35.527" stroke-linecap="round" stroke-linejoin="round"/></g><g opacity=".3" stroke="#000"><path d="M12.595 149.406l122.811 86.166a12 12 0 0013.035.485l133.62-79.623c7.712-4.596 7.832-15.723.22-20.483L109.695 28.026a12 12 0 00-12.409-.191L7.081 80.455a12 12 0 00-5.853 11.917l6.36 48.763a12 12 0 005.007 8.271z" fill="#EFEFEF" stroke-linecap="round" stroke-linejoin="round"/><path d="M125.054 78.629a16.5 16.5 0 0117.606.286l80.089 52.366c10.237 6.693 9.888 21.808-.646 28.022l-62.73 37.003a16.5 16.5 0 01-17.974-.785l-75.55-53.964c-9.634-6.882-9.1-21.369 1.014-27.523l58.191-35.405z" fill="url(#cpaint1_linear_1_684)"/><path d="M83.093 131.838l57.597-35.527M100.318 144.758l57.597-35.527M117.544 157.677l57.596-35.527M136.922 171.673l57.596-35.527" stroke-linecap="round" stroke-linejoin="round"/></g><path opacity=".6" d="M25.028 114.673l111.065 77.925a12 12 0 0013.035.485l119.791-71.382c7.712-4.596 7.831-15.723.219-20.483L113.744 4.043a12 12 0 00-12.409-.19L20.223 51.166a12 12 0 00-5.852 11.918l5.65 43.317a12 12 0 005.007 8.271z" fill="#EFEFEF" stroke="#000" stroke-linecap="round" stroke-linejoin="round"/><path d="M130.739 47.76a8.5 8.5 0 019.07.148l85.238 55.733c5.274 3.448 5.094 11.234-.333 14.435l-69.869 41.215a8.5 8.5 0 01-9.259-.404l-80.364-57.403c-4.962-3.545-4.687-11.008.523-14.178l64.994-39.545z" fill="url(#cpaint2_linear_1_684)" stroke="#000"/><path d="M88.942 98.384l52.529-32.401M104.652 110.167l52.529-32.401M120.361 121.947l52.53-32.401M138.035 134.713l52.529-32.401" stroke="#000" stroke-linecap="round" stroke-linejoin="round"/><defs><linearGradient id="cpaint0_linear_1_684" x1="-7.999" y1="7.499" x2="253.708" y2="96.083" gradientUnits="userSpaceOnUse"><stop stop-color="#53EAFF"/><stop offset="1" stop-color="#B9F348"/></linearGradient><linearGradient id="cpaint1_linear_1_684" x1="54" y1="-20.5" x2="264.434" y2="83.558" gradientUnits="userSpaceOnUse"><stop stop-color="#53EAFF"/><stop offset="1" stop-color="#B9F348"/></linearGradient><linearGradient id="cpaint2_linear_1_684" x1="-24.999" y1="82.001" x2="160.463" y2="-6.055" gradientUnits="userSpaceOnUse"><stop stop-color="#53EAFF"/><stop offset="1" stop-color="#B9F348"/></linearGradient></defs></svg></svg>