<svg width="447" height="308" fill="none" xmlns="http://www.w3.org/2000/svg"><path d="m45.032 140.927 225.715 159.308a19.999 19.999 0 0 0 21.77.841l103.256-61.529c12.701-7.568 13.083-25.825.71-33.918L139.421 37.489a19.999 19.999 0 0 0-21.099-.494L25.673 91.578c-12.25 7.217-13.27 24.552-1.95 33.155l21.309 16.194Z" fill="#D9DBE9" stroke="#000" stroke-linecap="round" stroke-linejoin="round"/><path d="m403.093 231.696 1.396-2.792a19.532 19.532 0 0 0 1.559-4.335l.228-.99c.478-2.068.646-4.196.5-6.313l-.592-8.579-1.707 5.462-.024.076-.046.065-4.852 6.793 3.538 10.613Z" fill="#D9DBE9" stroke="#000"/><path d="m395 225 5.5-4.5 3 9.5-1 2-7.5-7Z" fill="#D9DBE9"/><path d="m19.398 120.269-1.146-2.101a19.506 19.506 0 0 1-1.881-4.953l-.177-.765a21.496 21.496 0 0 1-.515-6.061l.618-10.826 1.715 7.547.023.098.058.082 4.85 6.79-3.545 10.189Z" fill="#D9DBE9" stroke="#000"/><path d="m27.5 113.999-5.5-4.5-4 7 2 4 7.5-6.5Z" fill="#D9DBE9"/><path d="m45.752 127.238 225.715 159.308a20.002 20.002 0 0 0 21.771.841l103.255-61.529c12.701-7.569 13.083-25.826.71-33.919L140.142 23.799a20 20 0 0 0-21.1-.493L26.394 77.888c-12.25 7.217-13.27 24.552-1.95 33.156l21.308 16.194Z" fill="#F7F7FC" stroke="#000" stroke-linecap="round" stroke-linejoin="round"/><rect x="67.045" y="61.489" width="34.143" height="3.882" rx="1.941" transform="rotate(-30 67.045 61.489)" fill="#B1B3C0" stroke="#000"/><path d="M278.617 131.313c.885.884 2.288.961 3.284.235 41.873-30.555 83.631-23.094 116.583-3.867.686.401.846 1.117.613 1.764-.236.654-.851 1.158-1.666 1.092-30.162-2.442-56.492 8.579-82.247 33.787a2.491 2.491 0 0 0-.017 3.538l18.735 18.735c.945.945.276 2.561-1.061 2.561h-73.633a1.5 1.5 0 0 1-1.5-1.5v-73.633c0-1.336 1.616-2.005 2.561-1.06l18.348 18.348Z" fill="url(#a)" stroke="#000"/><path d="M112.758 125.317c.324 1.208-.309 2.459-1.432 2.963-33.85 15.174-44.823 43.428-45.297 70.89-.013.788.516 1.29 1.202 1.421.694.133 1.46-.139 1.834-.87 9.746-18.983 26.2-31.156 50.81-38.134a2.483 2.483 0 0 1 3.071 1.751l4.64 17.318c.346 1.291 2.08 1.519 2.748.362l26.475-45.856a1.5 1.5 0 0 0-.549-2.049l-45.856-26.474c-1.157-.669-2.545.396-2.199 1.687l4.553 16.991Z" fill="url(#b)" stroke="#000"/><defs><linearGradient id="a" x1="127.5" y1="227" x2="208.253" y2="42.208" gradientUnits="userSpaceOnUse"><stop stop-color="#53EAFF"/><stop offset="1" stop-color="#B9F348"/></linearGradient><linearGradient id="b" x1="246.5" y1="70" x2="98.32" y2="41.743" gradientUnits="userSpaceOnUse"><stop stop-color="#53EAFF"/><stop offset="1" stop-color="#B9F348"/></linearGradient></defs></svg>
