<svg width="299" height="289" fill="none" xmlns="http://www.w3.org/2000/svg"><g opacity=".1" stroke="#000"><path d="m12.595 197.473 122.811 86.165a12 12 0 0 0 13.035.485l133.62-79.623c7.712-4.595 7.832-15.722.22-20.483L109.695 76.092a12 12 0 0 0-12.409-.191l-90.205 52.62a12 12 0 0 0-5.853 11.917l6.36 48.763a12 12 0 0 0 5.007 8.272Z" fill="#EFEFEF" stroke-linecap="round" stroke-linejoin="round"/><path d="M125.054 126.695a16.503 16.503 0 0 1 17.606.286l80.089 52.367c10.237 6.693 9.888 21.807-.646 28.021l-62.73 37.004a16.5 16.5 0 0 1-17.974-.786l-75.55-53.964c-9.634-6.881-9.1-21.369 1.014-27.523l58.191-35.405Z" fill="url(#a)"/><path d="m83.093 179.905 57.597-35.527M100.318 192.825l57.597-35.527M117.544 205.743l57.596-35.527M136.922 219.739l57.596-35.527" stroke-linecap="round" stroke-linejoin="round"/></g><g opacity=".3" stroke="#000"><path d="m12.595 149.406 122.811 86.166a12 12 0 0 0 13.035.485l133.62-79.623c7.712-4.596 7.832-15.723.22-20.483L109.695 28.026a12 12 0 0 0-12.409-.191L7.081 80.455a12 12 0 0 0-5.853 11.917l6.36 48.763a12 12 0 0 0 5.007 8.271Z" fill="#EFEFEF" stroke-linecap="round" stroke-linejoin="round"/><path d="M125.054 78.629a16.5 16.5 0 0 1 17.606.286l80.089 52.366c10.237 6.693 9.888 21.808-.646 28.022l-62.73 37.003a16.5 16.5 0 0 1-17.974-.785l-75.55-53.964c-9.634-6.882-9.1-21.369 1.014-27.523l58.191-35.405Z" fill="url(#b)"/><path d="m83.093 131.838 57.597-35.527M100.318 144.758l57.597-35.527M117.544 157.677l57.596-35.527M136.922 171.673l57.596-35.527" stroke-linecap="round" stroke-linejoin="round"/></g><path opacity=".6" d="m25.028 114.673 111.065 77.925a12 12 0 0 0 13.035.485l119.791-71.382c7.712-4.596 7.831-15.723.219-20.483L113.744 4.043a12 12 0 0 0-12.409-.19L20.223 51.166a12 12 0 0 0-5.852 11.918l5.65 43.317a12 12 0 0 0 5.007 8.271Z" fill="#EFEFEF" stroke="#000" stroke-linecap="round" stroke-linejoin="round"/><path d="M130.739 47.76a8.5 8.5 0 0 1 9.07.148l85.238 55.733c5.274 3.448 5.094 11.234-.333 14.435l-69.869 41.215a8.5 8.5 0 0 1-9.259-.404l-80.364-57.403c-4.962-3.545-4.687-11.008.523-14.178l64.994-39.545Z" fill="url(#c)" stroke="#000"/><path d="m88.942 98.384 52.529-32.401M104.652 110.167l52.529-32.401M120.361 121.947l52.53-32.401M138.035 134.713l52.529-32.401" stroke="#000" stroke-linecap="round" stroke-linejoin="round"/><defs><linearGradient id="a" x1="-7.999" y1="7.499" x2="253.708" y2="96.083" gradientUnits="userSpaceOnUse"><stop stop-color="#53EAFF"/><stop offset="1" stop-color="#B9F348"/></linearGradient><linearGradient id="b" x1="54" y1="-20.5" x2="264.434" y2="83.558" gradientUnits="userSpaceOnUse"><stop stop-color="#53EAFF"/><stop offset="1" stop-color="#B9F348"/></linearGradient><linearGradient id="c" x1="-24.999" y1="82.001" x2="160.463" y2="-6.055" gradientUnits="userSpaceOnUse"><stop stop-color="#53EAFF"/><stop offset="1" stop-color="#B9F348"/></linearGradient></defs></svg>
